<svg width="800" height="400" viewBox="0 0 800 400" xmlns="http://www.w3.org/2000/svg"><mask id="satori_om-id"><rect x="0" y="0" width="800" height="400" fill="#fff"/></mask><rect x="0" y="0" width="800" height="400" fill="#f0f4f8"/><mask id="satori_om-id-0"><rect x="225" y="98" width="350" height="60" fill="#fff"/></mask><path fill="#0056b3" d="M228.2 146.4L228.2 110.1L237.6 110.1L247.7 134.5L248.1 134.5L258.1 110.1L267.6 110.1L267.6 146.4L260.1 146.4L260.1 122.8L259.8 122.8L250.4 146.3L245.3 146.3L235.9 122.7L235.6 122.7L235.6 146.4L228.2 146.4ZM306.0 122.8L306.0 122.8L298.2 122.8Q298.0 121.3 297.3 120.1Q296.7 118.9 295.6 118.1Q294.6 117.3 293.3 116.8Q291.9 116.4 290.4 116.4L290.4 116.4Q287.6 116.4 285.5 117.8Q283.4 119.2 282.2 121.8Q281.1 124.5 281.1 128.3L281.1 128.3Q281.1 132.1 282.2 134.8Q283.4 137.4 285.5 138.8Q287.6 140.1 290.3 140.1L290.3 140.1Q291.9 140.1 293.2 139.7Q294.5 139.3 295.5 138.5Q296.6 137.7 297.3 136.6Q297.9 135.5 298.2 134.0L298.2 134.0L306.0 134.0Q305.7 136.5 304.5 138.9Q303.3 141.2 301.3 143.0Q299.3 144.8 296.5 145.9Q293.7 146.9 290.2 146.9L290.2 146.9Q285.3 146.9 281.5 144.7Q277.7 142.5 275.5 138.4Q273.3 134.2 273.3 128.3L273.3 128.3Q273.3 122.3 275.5 118.1Q277.7 114.0 281.6 111.8Q285.4 109.6 290.2 109.6L290.2 109.6Q293.4 109.6 296.1 110.5Q298.8 111.4 300.9 113.0Q303.0 114.7 304.3 117.2Q305.6 119.6 306.0 122.8ZM326.2 118.4L317.1 146.4L308.9 146.4L321.4 110.1L331.3 110.1L343.9 146.4L335.6 146.4L326.5 118.4L326.2 118.4ZM316.6 138.1L316.6 132.1L336.0 132.1L336.0 138.1L316.6 138.1Z M392.4 121.8L384.6 121.8Q384.2 120.5 383.6 119.5Q382.9 118.5 381.9 117.8Q380.9 117.1 379.7 116.8Q378.5 116.4 377.0 116.4L377.0 116.4Q374.2 116.4 372.1 117.8Q370.0 119.1 368.8 121.8Q367.6 124.4 367.6 128.2L367.6 128.2Q367.6 132.0 368.8 134.7Q370.0 137.3 372.1 138.7Q374.2 140.1 377.1 140.1L377.1 140.1Q379.7 140.1 381.5 139.2Q383.4 138.3 384.4 136.6Q385.4 134.9 385.4 132.5L385.4 132.5L386.9 132.8L377.5 132.8L377.5 127.0L392.8 127.0L392.8 131.6Q392.8 136.4 390.7 139.8Q388.7 143.2 385.2 145.1Q381.6 146.9 377.0 146.9L377.0 146.9Q371.9 146.9 368.0 144.7Q364.2 142.4 362.0 138.2Q359.9 134.0 359.9 128.3L359.9 128.3Q359.9 123.9 361.1 120.4Q362.4 116.9 364.8 114.5Q367.1 112.1 370.2 110.8Q373.3 109.6 376.9 109.6L376.9 109.6Q380.0 109.6 382.6 110.5Q385.3 111.4 387.3 113.0Q389.4 114.6 390.7 116.9Q392.0 119.1 392.4 121.8L392.4 121.8ZM406.2 147.0L406.2 147.0Q403.6 147.0 401.5 146.0Q399.5 145.1 398.3 143.3Q397.1 141.5 397.1 138.8L397.1 138.8Q397.1 136.5 397.9 135.0Q398.8 133.5 400.2 132.5Q401.7 131.6 403.5 131.1Q405.3 130.6 407.4 130.4L407.4 130.4Q409.7 130.2 411.2 130.0Q412.6 129.7 413.3 129.3Q414.0 128.8 414.0 128.0L414.0 128.0L414.0 127.9Q414.0 126.2 412.9 125.3Q411.8 124.3 409.9 124.3L409.9 124.3Q407.9 124.3 406.7 125.2Q405.5 126.1 405.1 127.5L405.1 127.5L398.1 126.9Q398.6 124.4 400.2 122.6Q401.7 120.8 404.2 119.8Q406.7 118.8 409.9 118.8L409.9 118.8Q412.2 118.8 414.3 119.3Q416.4 119.9 418.0 121.0Q419.6 122.1 420.6 123.9Q421.5 125.6 421.5 128.0L421.5 128.0L421.5 146.4L414.3 146.4L414.3 142.7L414.1 142.7Q413.5 143.9 412.4 144.9Q411.3 145.9 409.7 146.4Q408.2 147.0 406.2 147.0ZM408.3 141.7L408.3 141.7Q410.0 141.7 411.3 141.1Q412.6 140.4 413.3 139.3Q414.0 138.1 414.0 136.7L414.0 136.7L414.0 133.8Q413.7 134.0 413.0 134.2Q412.4 134.4 411.7 134.6Q410.9 134.7 410.1 134.8Q409.4 134.9 408.8 135.0L408.8 135.0Q407.4 135.2 406.4 135.6Q405.4 136.1 404.9 136.8Q404.3 137.5 404.3 138.6L404.3 138.6Q404.3 140.1 405.5 140.9Q406.6 141.7 408.3 141.7ZM425.5 119.2L441.9 119.2L441.9 124.8L425.5 124.8L425.5 119.2ZM429.2 139.1L429.2 112.6L436.8 112.6L436.8 138.1Q436.8 139.1 437.1 139.7Q437.4 140.3 438.0 140.5Q438.6 140.7 439.3 140.7L439.3 140.7Q439.9 140.7 440.4 140.6Q440.9 140.5 441.2 140.5L441.2 140.5L442.4 146.1Q441.8 146.3 440.8 146.5Q439.8 146.8 438.3 146.8L438.3 146.8Q435.6 146.9 433.5 146.1Q431.5 145.2 430.3 143.5Q429.2 141.7 429.2 139.1L429.2 139.1ZM459.0 147.0L459.0 147.0Q454.8 147.0 451.7 145.3Q448.7 143.5 447.1 140.4Q445.4 137.2 445.4 132.9L445.4 132.9Q445.4 128.7 447.1 125.5Q448.7 122.4 451.7 120.6Q454.7 118.8 458.7 118.8L458.7 118.8Q461.4 118.8 463.7 119.7Q466.0 120.5 467.8 122.3Q469.5 124.0 470.5 126.6Q471.5 129.2 471.5 132.7L471.5 132.7L471.5 134.7L448.5 134.7L448.5 130.0L464.4 130.0Q464.4 128.4 463.7 127.2Q462.9 125.9 461.7 125.2Q460.4 124.5 458.8 124.5L458.8 124.5Q457.1 124.5 455.7 125.2Q454.4 126.0 453.7 127.4Q452.9 128.7 452.9 130.3L452.9 130.3L452.9 134.8Q452.9 136.8 453.7 138.3Q454.4 139.7 455.8 140.5Q457.2 141.3 459.1 141.3L459.1 141.3Q460.4 141.3 461.4 141.0Q462.4 140.6 463.2 139.9Q463.9 139.2 464.3 138.2L464.3 138.2L471.3 138.6Q470.8 141.1 469.1 143.0Q467.5 144.9 464.9 145.9Q462.3 147.0 459.0 147.0ZM489.6 146.4L481.6 146.4L474.2 119.2L481.8 119.2L486.0 137.5L486.3 137.5L490.7 119.2L498.2 119.2L502.7 137.4L502.9 137.4L507.1 119.2L514.7 119.2L507.3 146.4L499.3 146.4L494.6 129.3L494.3 129.3L489.6 146.4ZM526.5 147.0L526.5 147.0Q523.9 147.0 521.8 146.0Q519.8 145.1 518.6 143.3Q517.4 141.5 517.4 138.8L517.4 138.8Q517.4 136.5 518.3 135.0Q519.1 133.5 520.5 132.5Q522.0 131.6 523.8 131.1Q525.7 130.6 527.7 130.4L527.7 130.4Q530.1 130.2 531.5 130.0Q533.0 129.7 533.6 129.3Q534.3 128.8 534.3 128.0L534.3 128.0L534.3 127.9Q534.3 126.2 533.2 125.3Q532.2 124.3 530.2 124.3L530.2 124.3Q528.2 124.3 527.0 125.2Q525.8 126.1 525.4 127.5L525.4 127.5L518.4 126.9Q518.9 124.4 520.5 122.6Q522.1 120.8 524.5 119.8Q527.0 118.8 530.3 118.8L530.3 118.8Q532.5 118.8 534.6 119.3Q536.7 119.9 538.3 121.0Q540.0 122.1 540.9 123.9Q541.9 125.6 541.9 128.0L541.9 128.0L541.9 146.4L534.7 146.4L534.7 142.7L534.5 142.7Q533.8 143.9 532.7 144.9Q531.6 145.9 530.1 146.4Q528.5 147.0 526.5 147.0ZM528.7 141.7L528.7 141.7Q530.3 141.7 531.6 141.1Q532.9 140.4 533.6 139.3Q534.3 138.1 534.3 136.7L534.3 136.7L534.3 133.8Q534.0 134.0 533.4 134.2Q532.8 134.4 532.0 134.6Q531.2 134.7 530.5 134.8Q529.7 134.9 529.1 135.0L529.1 135.0Q527.8 135.2 526.8 135.6Q525.8 136.1 525.2 136.8Q524.7 137.5 524.7 138.6L524.7 138.6Q524.7 140.1 525.8 140.9Q526.9 141.7 528.7 141.7ZM551.4 156.7L551.4 156.7Q550.0 156.7 548.7 156.4Q547.5 156.2 546.6 155.9L546.6 155.9L548.3 150.2Q549.7 150.6 550.8 150.7Q551.8 150.7 552.6 150.2Q553.4 149.7 553.9 148.4L553.9 148.4L554.4 147.2L544.6 119.2L552.5 119.2L558.2 139.2L558.5 139.2L564.2 119.2L572.2 119.2L561.6 149.4Q560.8 151.6 559.5 153.2Q558.2 154.9 556.2 155.8Q554.2 156.7 551.4 156.7Z "/><mask id="satori_om-id-1"><rect x="79" y="178" width="642" height="51" fill="#fff"/></mask><path fill="#0056b3" d="M94.6 195.1L86.9 218.7L80.0 218.7L90.5 188.1L98.9 188.1L109.4 218.7L102.5 218.7L94.8 195.1L94.6 195.1ZM86.5 211.7L86.5 206.7L102.8 206.7L102.8 211.7L86.5 211.7ZM122.2 219.1L122.2 219.1Q118.7 219.1 116.2 217.6Q113.6 216.1 112.3 213.5Q110.9 210.8 110.9 207.3L110.9 207.3Q110.9 203.8 112.3 201.1Q113.7 198.5 116.2 197.0Q118.7 195.5 122.2 195.5L122.2 195.5Q125.2 195.5 127.4 196.6Q129.7 197.7 131.0 199.6Q132.3 201.6 132.5 204.3L132.5 204.3L126.5 204.3Q126.2 202.5 125.1 201.5Q124.0 200.4 122.3 200.4L122.3 200.4Q120.8 200.4 119.7 201.2Q118.6 202.0 118.0 203.5Q117.4 205.1 117.4 207.2L117.4 207.2Q117.4 209.4 118.0 211.0Q118.6 212.5 119.7 213.3Q120.8 214.1 122.3 214.1L122.3 214.1Q123.4 214.1 124.3 213.7Q125.1 213.2 125.7 212.4Q126.3 211.5 126.5 210.3L126.5 210.3L132.5 210.3Q132.3 212.9 131.0 214.9Q129.8 216.9 127.5 218.0Q125.3 219.1 122.2 219.1ZM146.9 219.1L146.9 219.1Q143.4 219.1 140.8 217.6Q138.3 216.1 137.0 213.5Q135.6 210.8 135.6 207.3L135.6 207.3Q135.6 203.8 137.0 201.1Q138.3 198.5 140.9 197.0Q143.4 195.5 146.9 195.5L146.9 195.5Q149.9 195.5 152.1 196.6Q154.4 197.7 155.7 199.6Q157.0 201.6 157.1 204.3L157.1 204.3L151.1 204.3Q150.9 202.5 149.8 201.5Q148.7 200.4 147.0 200.4L147.0 200.4Q145.5 200.4 144.4 201.2Q143.3 202.0 142.7 203.5Q142.1 205.1 142.1 207.2L142.1 207.2Q142.1 209.4 142.7 211.0Q143.3 212.5 144.4 213.3Q145.5 214.1 147.0 214.1L147.0 214.1Q148.1 214.1 148.9 213.7Q149.8 213.2 150.4 212.4Q150.9 211.5 151.1 210.3L151.1 210.3L157.1 210.3Q157.0 212.9 155.7 214.9Q154.4 216.9 152.2 218.0Q149.9 219.1 146.9 219.1ZM171.7 219.1L171.7 219.1Q168.1 219.1 165.6 217.7Q163.0 216.3 161.7 213.6Q160.3 211.0 160.3 207.3L160.3 207.3Q160.3 203.8 161.7 201.1Q163.0 198.5 165.5 197.0Q168.0 195.5 171.4 195.5L171.4 195.5Q173.7 195.5 175.6 196.2Q177.6 196.9 179.1 198.4Q180.5 199.8 181.3 202.0Q182.2 204.2 182.2 207.1L182.2 207.1L182.2 208.9L162.8 208.9L162.8 204.9L176.2 204.9Q176.2 203.5 175.6 202.5Q175.0 201.4 173.9 200.8Q172.9 200.2 171.5 200.2L171.5 200.2Q170.1 200.2 168.9 200.9Q167.8 201.6 167.2 202.7Q166.6 203.8 166.6 205.1L166.6 205.1L166.6 208.9Q166.6 210.6 167.2 211.8Q167.8 213.0 169.0 213.7Q170.2 214.4 171.8 214.4L171.8 214.4Q172.8 214.4 173.7 214.1Q174.6 213.8 175.2 213.2Q175.8 212.6 176.2 211.7L176.2 211.7L182.0 212.1Q181.6 214.2 180.2 215.8Q178.8 217.4 176.7 218.3Q174.5 219.1 171.7 219.1ZM205.4 202.3L205.4 202.3L199.6 202.7Q199.4 201.9 198.9 201.3Q198.4 200.7 197.6 200.3Q196.8 200.0 195.7 200.0L195.7 200.0Q194.2 200.0 193.2 200.6Q192.2 201.2 192.2 202.3L192.2 202.3Q192.2 203.1 192.9 203.6Q193.5 204.2 195.1 204.5L195.1 204.5L199.3 205.4Q202.6 206.1 204.3 207.6Q205.9 209.1 205.9 211.6L205.9 211.6Q205.9 213.8 204.6 215.5Q203.3 217.2 201.0 218.2Q198.7 219.1 195.7 219.1L195.7 219.1Q191.1 219.1 188.5 217.2Q185.8 215.3 185.3 212.1L185.3 212.1L191.5 211.7Q191.8 213.1 192.9 213.8Q194.0 214.6 195.7 214.6L195.7 214.6Q197.4 214.6 198.4 213.9Q199.4 213.3 199.4 212.2L199.4 212.2Q199.4 211.4 198.7 210.8Q198.0 210.2 196.5 209.9L196.5 209.9L192.5 209.2Q189.2 208.5 187.5 206.8Q185.9 205.2 185.9 202.6L185.9 202.6Q185.9 200.4 187.1 198.8Q188.3 197.2 190.5 196.3Q192.7 195.5 195.6 195.5L195.6 195.5Q200.0 195.5 202.5 197.3Q205.0 199.1 205.4 202.3ZM229.0 202.3L229.0 202.3L223.2 202.7Q223.0 201.9 222.5 201.3Q222.0 200.7 221.2 200.3Q220.4 200.0 219.3 200.0L219.3 200.0Q217.8 200.0 216.8 200.6Q215.8 201.2 215.8 202.3L215.8 202.3Q215.8 203.1 216.5 203.6Q217.1 204.2 218.7 204.5L218.7 204.5L222.9 205.4Q226.2 206.1 227.8 207.6Q229.5 209.1 229.5 211.6L229.5 211.6Q229.5 213.8 228.2 215.5Q226.9 217.2 224.6 218.2Q222.3 219.1 219.3 219.1L219.3 219.1Q214.7 219.1 212.0 217.2Q209.4 215.3 208.9 212.1L208.9 212.1L215.1 211.7Q215.4 213.1 216.5 213.8Q217.6 214.6 219.3 214.6L219.3 214.6Q221.0 214.6 222.0 213.9Q223.0 213.3 223.0 212.2L223.0 212.2Q223.0 211.4 222.3 210.8Q221.6 210.2 220.1 209.9L220.1 209.9L216.1 209.2Q212.8 208.5 211.1 206.8Q209.5 205.2 209.5 202.6L209.5 202.6Q209.5 200.4 210.7 198.8Q211.9 197.2 214.1 196.3Q216.3 195.5 219.2 195.5L219.2 195.5Q223.6 195.5 226.1 197.3Q228.6 199.1 229.0 202.3Z M251.5 188.1L257.5 188.1L257.5 218.7L251.1 218.7L251.1 194.3L250.9 194.3L243.9 198.7L243.9 192.9L251.5 188.1ZM276.8 219.4L276.8 219.4Q272.9 219.3 270.2 217.5Q267.4 215.6 265.9 212.0Q264.4 208.5 264.5 203.4L264.5 203.4Q264.5 198.4 265.9 194.9Q267.4 191.4 270.2 189.6Q273.0 187.7 276.8 187.7L276.8 187.7Q280.6 187.7 283.4 189.6Q286.2 191.4 287.6 194.9Q289.1 198.4 289.1 203.4L289.1 203.4Q289.1 208.5 287.6 212.0Q286.2 215.6 283.4 217.5Q280.6 219.4 276.8 219.4ZM276.8 214.0L276.8 214.0Q279.4 214.0 281.0 211.4Q282.5 208.7 282.5 203.4L282.5 203.4Q282.5 200.0 281.8 197.7Q281.1 195.3 279.8 194.2Q278.5 193.0 276.8 193.0L276.8 193.0Q274.2 193.0 272.6 195.6Q271.0 198.2 271.0 203.4L271.0 203.4Q271.0 207.0 271.7 209.3Q272.4 211.7 273.7 212.8Q275.0 214.0 276.8 214.0ZM305.7 219.4L305.7 219.4Q301.8 219.3 299.1 217.5Q296.3 215.6 294.8 212.0Q293.3 208.5 293.4 203.4L293.4 203.4Q293.4 198.4 294.8 194.9Q296.3 191.4 299.1 189.6Q301.9 187.7 305.7 187.7L305.7 187.7Q309.5 187.7 312.3 189.6Q315.1 191.4 316.5 194.9Q318.0 198.4 318.0 203.4L318.0 203.4Q318.0 208.5 316.5 212.0Q315.1 215.6 312.3 217.5Q309.5 219.4 305.7 219.4ZM305.7 214.0L305.7 214.0Q308.3 214.0 309.9 211.4Q311.4 208.7 311.4 203.4L311.4 203.4Q311.4 200.0 310.7 197.7Q310.0 195.3 308.7 194.2Q307.4 193.0 305.7 193.0L305.7 193.0Q303.1 193.0 301.5 195.6Q299.9 198.2 299.9 203.4L299.9 203.4Q299.9 207.0 300.6 209.3Q301.3 211.7 302.6 212.8Q303.9 214.0 305.7 214.0ZM337.1 217.0L331.7 217.0L331.7 195.9L337.1 195.9L337.1 217.0ZM345.0 209.1L323.9 209.1L323.9 203.8L345.0 203.8L345.0 209.1Z M373.3 209.4L373.3 188.1L379.7 188.1L379.7 209.4Q379.7 212.4 378.4 214.6Q377.1 216.7 374.7 217.9Q372.4 219.1 369.3 219.1L369.3 219.1Q366.5 219.1 364.3 218.1Q362.0 217.2 360.7 215.1Q359.4 213.1 359.4 210.1L359.4 210.1L365.8 210.1Q365.9 211.3 366.3 212.2Q366.8 213.0 367.6 213.5Q368.5 213.9 369.6 213.9L369.6 213.9Q370.8 213.9 371.6 213.4Q372.4 212.9 372.9 211.9Q373.3 210.9 373.3 209.4L373.3 209.4ZM405.7 218.7L385.0 218.7L385.0 188.1L405.6 188.1L405.6 193.5L391.5 193.5L391.5 200.7L404.5 200.7L404.5 206.1L391.5 206.1L391.5 213.4L405.7 213.4L405.7 218.7ZM437.7 198.8L437.7 198.8L431.2 198.8Q431.0 197.6 430.4 196.6Q429.9 195.6 429.0 194.9Q428.2 194.2 427.0 193.8Q425.9 193.4 424.6 193.4L424.6 193.4Q422.2 193.4 420.5 194.6Q418.7 195.8 417.7 198.0Q416.8 200.2 416.8 203.4L416.8 203.4Q416.8 206.7 417.7 208.9Q418.7 211.1 420.5 212.3Q422.2 213.4 424.5 213.4L424.5 213.4Q425.8 213.4 427.0 213.0Q428.1 212.7 428.9 212.0Q429.8 211.4 430.4 210.4Q430.9 209.5 431.2 208.2L431.2 208.2L437.7 208.3Q437.4 210.4 436.4 212.3Q435.4 214.3 433.7 215.8Q432.0 217.3 429.7 218.2Q427.4 219.1 424.4 219.1L424.4 219.1Q420.4 219.1 417.1 217.3Q413.9 215.4 412.1 211.9Q410.2 208.4 410.2 203.4L410.2 203.4Q410.2 198.4 412.1 194.9Q414.0 191.4 417.2 189.6Q420.4 187.7 424.4 187.7L424.4 187.7Q427.1 187.7 429.4 188.5Q431.6 189.2 433.4 190.6Q435.2 192.1 436.3 194.1Q437.4 196.2 437.7 198.8ZM454.7 195.1L447.0 218.7L440.1 218.7L450.7 188.1L459.0 188.1L469.5 218.7L462.6 218.7L454.9 195.1L454.7 195.1ZM446.6 211.7L446.6 206.7L463.0 206.7L463.0 211.7L446.6 211.7Z M483.5 218.7L483.5 188.1L491.5 188.1L499.9 208.7L500.2 208.7L508.6 188.1L516.6 188.1L516.6 218.7L510.3 218.7L510.3 198.8L510.1 198.8L502.2 218.5L497.9 218.5L490.0 198.7L489.8 198.7L489.8 218.7L483.5 218.7ZM532.1 219.1L532.1 219.1Q528.7 219.1 526.1 217.7Q523.6 216.2 522.2 213.5Q520.9 210.8 520.9 207.3L520.9 207.3Q520.9 203.8 522.2 201.1Q523.6 198.4 526.1 197.0Q528.7 195.5 532.1 195.5L532.1 195.5Q535.6 195.5 538.1 197.0Q540.7 198.4 542.0 201.1Q543.4 203.8 543.4 207.3L543.4 207.3Q543.4 210.8 542.0 213.5Q540.7 216.2 538.1 217.7Q535.6 219.1 532.1 219.1ZM532.2 214.2L532.2 214.2Q533.8 214.2 534.8 213.3Q535.9 212.4 536.4 210.8Q537.0 209.3 537.0 207.3L537.0 207.3Q537.0 205.3 536.4 203.7Q535.9 202.1 534.8 201.2Q533.8 200.3 532.2 200.3L532.2 200.3Q530.6 200.3 529.5 201.2Q528.4 202.1 527.9 203.7Q527.3 205.3 527.3 207.3L527.3 207.3Q527.3 209.3 527.9 210.8Q528.4 212.4 529.5 213.3Q530.6 214.2 532.2 214.2ZM557.9 219.1L557.9 219.1Q554.4 219.1 551.9 217.6Q549.3 216.1 548.0 213.5Q546.6 210.8 546.6 207.3L546.6 207.3Q546.6 203.8 548.0 201.1Q549.4 198.5 551.9 197.0Q554.4 195.5 557.9 195.5L557.9 195.5Q560.9 195.5 563.1 196.6Q565.4 197.7 566.7 199.6Q568.0 201.6 568.1 204.3L568.1 204.3L562.1 204.3Q561.9 202.5 560.8 201.5Q559.7 200.4 558.0 200.4L558.0 200.4Q556.5 200.4 555.4 201.2Q554.3 202.0 553.7 203.5Q553.1 205.1 553.1 207.2L553.1 207.2Q553.1 209.4 553.7 211.0Q554.3 212.5 555.4 213.3Q556.5 214.1 558.0 214.1L558.0 214.1Q559.1 214.1 559.9 213.7Q560.8 213.2 561.4 212.4Q562.0 211.5 562.1 210.3L562.1 210.3L568.1 210.3Q568.0 212.9 566.7 214.9Q565.4 216.9 563.2 218.0Q561.0 219.1 557.9 219.1ZM582.2 207.3L578.0 212.1L578.0 204.5L578.9 204.5L586.3 195.8L593.6 195.8L583.7 207.3L582.2 207.3ZM578.6 218.7L572.2 218.7L572.2 188.1L578.6 188.1L578.6 218.7ZM594.0 218.7L586.5 218.7L579.8 208.7L584.0 204.2L594.0 218.7Z M614.7 193.5L605.4 193.5L605.4 188.1L630.4 188.1L630.4 193.5L621.1 193.5L621.1 218.7L614.7 218.7L614.7 193.5ZM641.6 219.1L641.6 219.1Q638.0 219.1 635.5 217.7Q632.9 216.3 631.6 213.6Q630.2 211.0 630.2 207.3L630.2 207.3Q630.2 203.8 631.6 201.1Q632.9 198.5 635.4 197.0Q637.9 195.5 641.3 195.5L641.3 195.5Q643.6 195.5 645.5 196.2Q647.5 196.9 649.0 198.4Q650.4 199.8 651.3 202.0Q652.1 204.2 652.1 207.1L652.1 207.1L652.1 208.9L632.7 208.9L632.7 204.9L646.1 204.9Q646.1 203.5 645.5 202.5Q644.9 201.4 643.9 200.8Q642.8 200.2 641.4 200.2L641.4 200.2Q640.0 200.2 638.9 200.9Q637.8 201.6 637.1 202.7Q636.5 203.8 636.5 205.1L636.5 205.1L636.5 208.9Q636.5 210.6 637.1 211.8Q637.8 213.0 638.9 213.7Q640.1 214.4 641.7 214.4L641.7 214.4Q642.7 214.4 643.6 214.1Q644.5 213.8 645.1 213.2Q645.7 212.6 646.1 211.7L646.1 211.7L652.0 212.1Q651.5 214.2 650.1 215.8Q648.7 217.4 646.6 218.3Q644.4 219.1 641.6 219.1ZM675.3 202.3L675.3 202.3L669.5 202.7Q669.3 201.9 668.8 201.3Q668.3 200.7 667.5 200.3Q666.7 200.0 665.6 200.0L665.6 200.0Q664.2 200.0 663.2 200.6Q662.1 201.2 662.1 202.3L662.1 202.3Q662.1 203.1 662.8 203.6Q663.5 204.2 665.0 204.5L665.0 204.5L669.2 205.4Q672.5 206.1 674.2 207.6Q675.8 209.1 675.8 211.6L675.8 211.6Q675.8 213.8 674.5 215.5Q673.2 217.2 670.9 218.2Q668.6 219.1 665.6 219.1L665.6 219.1Q661.1 219.1 658.4 217.2Q655.7 215.3 655.2 212.1L655.2 212.1L661.5 211.7Q661.8 213.1 662.8 213.8Q663.9 214.6 665.6 214.6L665.6 214.6Q667.3 214.6 668.3 213.9Q669.3 213.3 669.4 212.2L669.4 212.2Q669.3 211.4 668.6 210.8Q667.9 210.2 666.4 209.9L666.4 209.9L662.5 209.2Q659.1 208.5 657.5 206.8Q655.8 205.2 655.8 202.6L655.8 202.6Q655.8 200.4 657.0 198.8Q658.2 197.2 660.4 196.3Q662.6 195.5 665.5 195.5L665.5 195.5Q669.9 195.5 672.4 197.3Q674.9 199.1 675.3 202.3ZM678.2 195.8L692.0 195.8L692.0 200.6L678.2 200.6L678.2 195.8ZM681.3 212.5L681.3 190.3L687.7 190.3L687.7 211.6Q687.7 212.5 688.0 213.0Q688.2 213.5 688.7 213.7Q689.2 213.9 689.8 213.9L689.8 213.9Q690.3 213.9 690.7 213.8Q691.2 213.7 691.4 213.7L691.4 213.7L692.4 218.4Q692.0 218.6 691.1 218.8Q690.2 219.0 689.0 219.0L689.0 219.0Q686.7 219.1 685.0 218.4Q683.2 217.7 682.3 216.2Q681.3 214.7 681.3 212.5L681.3 212.5ZM714.9 202.3L714.9 202.3L709.1 202.7Q708.9 201.9 708.4 201.3Q707.9 200.7 707.1 200.3Q706.3 200.0 705.2 200.0L705.2 200.0Q703.8 200.0 702.8 200.6Q701.7 201.2 701.7 202.3L701.7 202.3Q701.7 203.1 702.4 203.6Q703.0 204.2 704.6 204.5L704.6 204.5L708.8 205.4Q712.1 206.1 713.8 207.6Q715.4 209.1 715.4 211.6L715.4 211.6Q715.4 213.8 714.1 215.5Q712.8 217.2 710.5 218.2Q708.2 219.1 705.2 219.1L705.2 219.1Q700.7 219.1 698.0 217.2Q695.3 215.3 694.8 212.1L694.8 212.1L701.1 211.7Q701.3 213.1 702.4 213.8Q703.5 214.6 705.2 214.6L705.2 214.6Q706.9 214.6 707.9 213.9Q708.9 213.3 709.0 212.2L709.0 212.2Q708.9 211.4 708.2 210.8Q707.5 210.2 706.0 209.9L706.0 209.9L702.0 209.2Q698.7 208.5 697.1 206.8Q695.4 205.2 695.4 202.6L695.4 202.6Q695.4 200.4 696.6 198.8Q697.8 197.2 700.0 196.3Q702.2 195.5 705.1 195.5L705.1 195.5Q709.5 195.5 712.0 197.3Q714.5 199.1 714.9 202.3Z "/><mask id="satori_om-id-2"><rect x="223" y="244" width="355" height="34" fill="#fff"/></mask><path fill="#333" d="M230.8 252.9L224.4 252.9L224.4 250.8L239.6 250.8L239.6 252.9L233.2 252.9L233.2 271.1L230.8 271.1L230.8 252.9ZM247.1 271.4L247.1 271.4Q245.0 271.4 243.5 270.5Q241.9 269.5 241.1 267.7Q240.2 265.9 240.2 263.6L240.2 263.6Q240.2 261.2 241.1 259.4Q241.9 257.6 243.5 256.6Q245.0 255.7 247.1 255.7L247.1 255.7Q249.2 255.7 250.7 256.6Q252.3 257.6 253.2 259.4Q254.0 261.2 254.0 263.6L254.0 263.6Q254.0 265.9 253.2 267.7Q252.3 269.5 250.7 270.5Q249.2 271.4 247.1 271.4ZM247.1 269.3L247.1 269.3Q248.7 269.3 249.7 268.5Q250.7 267.7 251.2 266.4Q251.7 265.1 251.7 263.6L251.7 263.6Q251.7 262.0 251.2 260.7Q250.7 259.4 249.7 258.6Q248.7 257.8 247.1 257.8L247.1 257.8Q245.5 257.8 244.5 258.6Q243.5 259.4 243.0 260.7Q242.5 262.0 242.5 263.6L242.5 263.6Q242.5 265.1 243.0 266.4Q243.5 267.7 244.5 268.5Q245.5 269.3 247.1 269.3ZM259.9 276.9L257.6 276.9L257.6 255.9L259.9 255.9L259.9 258.3L260.1 258.3Q260.4 257.9 260.9 257.3Q261.3 256.6 262.2 256.1Q263.1 255.7 264.6 255.7L264.6 255.7Q266.5 255.7 268.0 256.6Q269.4 257.6 270.3 259.4Q271.1 261.1 271.1 263.5L271.1 263.5Q271.1 266.0 270.3 267.7Q269.4 269.5 268.0 270.5Q266.5 271.4 264.6 271.4L264.6 271.4Q263.1 271.4 262.2 271.0Q261.4 270.5 260.9 269.8Q260.4 269.2 260.1 268.8L260.1 268.8L259.9 268.8L259.9 276.9ZM259.9 263.5L259.9 263.5Q259.9 265.2 260.4 266.5Q260.9 267.9 261.9 268.6Q262.9 269.3 264.3 269.3L264.3 269.3Q265.8 269.3 266.7 268.6Q267.7 267.8 268.2 266.4Q268.7 265.1 268.7 263.5L268.7 263.5Q268.7 261.9 268.2 260.6Q267.8 259.3 266.8 258.5Q265.8 257.8 264.3 257.8L264.3 257.8Q262.9 257.8 261.9 258.5Q260.9 259.2 260.4 260.5Q259.9 261.8 259.9 263.5ZM274.5 261.3L283.4 261.3L283.4 263.5L274.5 263.5L274.5 261.3ZM289.9 261.9L289.9 261.9L289.9 271.1L287.6 271.1L287.6 255.9L289.8 255.9L289.8 258.2L290.0 258.2Q290.6 257.1 291.6 256.4Q292.7 255.7 294.5 255.7L294.5 255.7Q296.0 255.7 297.2 256.3Q298.3 256.9 299.0 258.2Q299.6 259.5 299.6 261.4L299.6 261.4L299.6 271.1L297.3 271.1L297.3 261.6Q297.3 259.8 296.4 258.8Q295.4 257.8 293.8 257.8L293.8 257.8Q292.7 257.8 291.8 258.2Q290.9 258.7 290.4 259.7Q289.9 260.6 289.9 261.9ZM310.1 271.4L310.1 271.4Q308.1 271.4 306.5 270.5Q305.0 269.5 304.1 267.7Q303.2 265.9 303.2 263.6L303.2 263.6Q303.2 261.2 304.1 259.4Q305.0 257.6 306.5 256.6Q308.1 255.7 310.1 255.7L310.1 255.7Q312.2 255.7 313.8 256.6Q315.3 257.6 316.2 259.4Q317.1 261.2 317.1 263.6L317.1 263.6Q317.1 265.9 316.2 267.7Q315.3 269.5 313.8 270.5Q312.2 271.4 310.1 271.4ZM310.1 269.3L310.1 269.3Q311.7 269.3 312.7 268.5Q313.7 267.7 314.2 266.4Q314.7 265.1 314.7 263.6L314.7 263.6Q314.7 262.0 314.2 260.7Q313.7 259.4 312.7 258.6Q311.7 257.8 310.1 257.8L310.1 257.8Q308.6 257.8 307.6 258.6Q306.5 259.4 306.1 260.7Q305.6 262.0 305.6 263.6L305.6 263.6Q305.6 265.1 306.1 266.4Q306.5 267.7 307.6 268.5Q308.6 269.3 310.1 269.3ZM319.4 255.9L327.3 255.9L327.3 257.8L319.4 257.8L319.4 255.9ZM321.7 267.4L321.7 252.2L324.0 252.2L324.0 266.8Q324.0 267.7 324.3 268.2Q324.6 268.7 325.1 268.9Q325.5 269.1 326.1 269.1L326.1 269.1Q326.4 269.1 326.7 269.0Q326.9 269.0 327.1 268.9L327.1 268.9L327.6 271.0Q327.3 271.1 326.9 271.2Q326.5 271.3 325.8 271.3L325.8 271.3Q324.8 271.3 323.9 270.9Q322.9 270.5 322.3 269.6Q321.7 268.7 321.7 267.4L321.7 267.4ZM336.9 271.4L336.9 271.4Q334.7 271.4 333.2 270.4Q331.6 269.4 330.8 267.6Q329.9 265.9 329.9 263.6L329.9 263.6Q329.9 261.2 330.8 259.5Q331.7 257.7 333.2 256.7Q334.8 255.7 336.8 255.7L336.8 255.7Q338.4 255.7 339.7 256.3Q341.0 256.8 341.9 257.9Q342.7 259.0 342.9 260.4L342.9 260.4L340.5 260.4Q340.3 259.4 339.3 258.6Q338.4 257.8 336.9 257.8L336.9 257.8Q335.5 257.8 334.5 258.5Q333.4 259.2 332.9 260.5Q332.3 261.8 332.3 263.5L332.3 263.5Q332.3 265.3 332.9 266.6Q333.4 267.9 334.4 268.6Q335.5 269.3 336.9 269.3L336.9 269.3Q337.8 269.3 338.5 269.0Q339.3 268.7 339.8 268.1Q340.3 267.5 340.5 266.7L340.5 266.7L342.9 266.7Q342.7 268.0 341.9 269.1Q341.1 270.2 339.8 270.8Q338.6 271.4 336.9 271.4ZM348.6 261.9L348.6 261.9L348.6 271.1L346.3 271.1L346.3 250.8L348.6 250.8L348.6 258.2L348.8 258.2Q349.4 257.1 350.5 256.4Q351.5 255.7 353.3 255.7L353.3 255.7Q354.9 255.7 356.1 256.3Q357.2 256.9 357.9 258.2Q358.5 259.5 358.5 261.4L358.5 261.4L358.5 271.1L356.2 271.1L356.2 261.6Q356.2 259.8 355.3 258.8Q354.3 257.8 352.7 257.8L352.7 257.8Q351.5 257.8 350.6 258.2Q349.7 258.7 349.2 259.7Q348.6 260.6 348.6 261.9Z M386.9 255.9L384.6 255.9Q384.4 254.3 383.1 253.5Q381.8 252.7 380.0 252.7L380.0 252.7Q378.6 252.7 377.6 253.1Q376.6 253.5 376.1 254.3Q375.5 255.1 375.5 256.1L375.5 256.1Q375.5 256.9 375.9 257.4Q376.3 258.0 376.9 258.4Q377.5 258.8 378.2 259.0Q378.9 259.3 379.4 259.4L379.4 259.4L381.5 260.0Q382.3 260.2 383.3 260.6Q384.2 260.9 385.1 261.6Q386.0 262.2 386.6 263.2Q387.2 264.2 387.2 265.6L387.2 265.6Q387.2 267.2 386.4 268.6Q385.5 269.9 383.9 270.7Q382.2 271.5 379.9 271.5L379.9 271.5Q377.7 271.5 376.1 270.8Q374.5 270.1 373.6 268.8Q372.7 267.5 372.5 265.9L372.5 265.9L375.1 265.9Q375.2 267.0 375.9 267.8Q376.6 268.5 377.6 268.9Q378.7 269.3 379.9 269.3L379.9 269.3Q381.3 269.3 382.4 268.8Q383.5 268.3 384.2 267.5Q384.8 266.7 384.8 265.6L384.8 265.6Q384.8 264.5 384.3 263.9Q383.7 263.3 382.8 262.9Q381.9 262.5 380.8 262.2L380.8 262.2L378.3 261.5Q375.9 260.8 374.5 259.5Q373.1 258.2 373.1 256.2L373.1 256.2Q373.1 254.5 374.0 253.2Q375.0 251.9 376.5 251.2Q378.1 250.5 380.1 250.5L380.1 250.5Q382.0 250.5 383.6 251.2Q385.1 251.9 386.0 253.1Q386.9 254.3 386.9 255.9L386.9 255.9ZM389.7 255.9L397.6 255.9L397.6 257.8L389.7 257.8L389.7 255.9ZM392.0 267.4L392.0 252.2L394.3 252.2L394.3 266.8Q394.3 267.7 394.6 268.2Q394.9 268.7 395.4 268.9Q395.9 269.1 396.4 269.1L396.4 269.1Q396.8 269.1 397.0 269.0Q397.3 269.0 397.4 268.9L397.4 268.9L397.9 271.0Q397.6 271.1 397.2 271.2Q396.8 271.3 396.1 271.3L396.1 271.3Q395.1 271.3 394.2 270.9Q393.2 270.5 392.6 269.6Q392.0 268.7 392.0 267.4L392.0 267.4ZM410.8 264.9L410.8 264.9L410.8 255.9L413.1 255.9L413.1 271.1L410.8 271.1L410.8 268.5L410.6 268.5Q410.1 269.7 408.9 270.5Q407.8 271.3 406.1 271.3L406.1 271.3Q404.6 271.3 403.5 270.7Q402.4 270.1 401.8 268.8Q401.1 267.5 401.1 265.6L401.1 265.6L401.1 255.9L403.5 255.9L403.5 265.4Q403.5 267.1 404.4 268.1Q405.4 269.1 406.8 269.1L406.8 269.1Q407.7 269.1 408.6 268.6Q409.5 268.2 410.1 267.2Q410.8 266.3 410.8 264.9ZM423.2 271.4L423.2 271.4Q421.3 271.4 419.8 270.5Q418.3 269.5 417.5 267.7Q416.7 266.0 416.7 263.5L416.7 263.5Q416.7 261.1 417.5 259.4Q418.3 257.6 419.8 256.6Q421.3 255.7 423.2 255.7L423.2 255.7Q424.7 255.7 425.6 256.1Q426.4 256.6 426.9 257.3Q427.4 257.9 427.6 258.3L427.6 258.3L427.8 258.3L427.8 250.8L430.2 250.8L430.2 271.1L427.9 271.1L427.9 268.8L427.6 268.8Q427.4 269.2 426.9 269.8Q426.4 270.5 425.5 271.0Q424.6 271.4 423.2 271.4ZM423.5 269.3L423.5 269.3Q424.9 269.3 425.9 268.6Q426.9 267.9 427.4 266.5Q427.9 265.2 427.9 263.5L427.9 263.5Q427.9 261.8 427.4 260.5Q426.9 259.2 425.9 258.5Q424.9 257.8 423.5 257.8L423.5 257.8Q422.0 257.8 421.0 258.5Q420.0 259.3 419.5 260.6Q419.0 261.9 419.0 263.5L419.0 263.5Q419.0 265.1 419.5 266.4Q420.0 267.8 421.0 268.6Q422.0 269.3 423.5 269.3ZM436.3 276.9L436.3 276.9Q435.7 276.9 435.2 276.8Q434.8 276.7 434.6 276.6L434.6 276.6L435.2 274.5Q436.0 274.7 436.7 274.7Q437.4 274.6 437.9 274.1Q438.4 273.6 438.8 272.4L438.8 272.4L439.2 271.2L433.6 255.9L436.1 255.9L440.4 268.0L440.5 268.0L444.7 255.9L447.3 255.9L440.8 273.4Q440.4 274.5 439.7 275.3Q439.1 276.1 438.2 276.5Q437.4 276.9 436.3 276.9Z M458.6 271.1L458.6 250.8L461.5 250.8L468.4 267.7L468.7 267.7L475.6 250.8L478.5 250.8L478.5 271.1L476.2 271.1L476.2 255.7L476.0 255.7L469.7 271.1L467.4 271.1L461.1 255.7L460.9 255.7L460.9 271.1L458.6 271.1ZM487.6 271.5L487.6 271.5Q486.2 271.5 485.0 270.9Q483.8 270.4 483.1 269.3Q482.4 268.3 482.4 266.8L482.4 266.8Q482.4 265.5 483.0 264.7Q483.5 263.8 484.3 263.4Q485.2 262.9 486.3 262.7Q487.3 262.4 488.4 262.3L488.4 262.3Q489.8 262.1 490.6 262.0Q491.5 261.9 491.9 261.7Q492.3 261.5 492.3 260.9L492.3 260.9L492.3 260.8Q492.3 259.4 491.5 258.5Q490.7 257.7 489.1 257.7L489.1 257.7Q487.4 257.7 486.4 258.5Q485.5 259.2 485.1 260.0L485.1 260.0L482.9 259.2Q483.5 257.8 484.5 257.1Q485.5 256.3 486.7 256.0Q487.8 255.7 489 255.7L489 255.7Q489.7 255.7 490.7 255.8Q491.7 256.0 492.6 256.5Q493.5 257.1 494.1 258.2Q494.6 259.2 494.6 261.1L494.6 261.1L494.6 271.1L492.3 271.1L492.3 269.1L492.2 269.1Q491.9 269.6 491.4 270.1Q490.8 270.7 489.9 271.1Q489.0 271.5 487.6 271.5ZM488.0 269.4L488.0 269.4Q489.4 269.4 490.4 268.8Q491.3 268.3 491.8 267.4Q492.3 266.6 492.3 265.6L492.3 265.6L492.3 263.4Q492.2 263.6 491.6 263.8Q491.1 263.9 490.5 264.0Q489.8 264.1 489.2 264.2Q488.6 264.3 488.2 264.3L488.2 264.3Q487.3 264.4 486.5 264.7Q485.7 265.0 485.3 265.5Q484.8 266.0 484.8 266.9L484.8 266.9Q484.8 268.1 485.7 268.8Q486.6 269.4 488.0 269.4ZM497.7 255.9L505.6 255.9L505.6 257.8L497.7 257.8L497.7 255.9ZM500.0 267.4L500.0 252.2L502.3 252.2L502.3 266.8Q502.3 267.7 502.6 268.2Q502.9 268.7 503.4 268.9Q503.8 269.1 504.4 269.1L504.4 269.1Q504.7 269.1 505.0 269.0Q505.2 269.0 505.4 268.9L505.4 268.9L505.9 271.0Q505.6 271.1 505.2 271.2Q504.8 271.3 504.1 271.3L504.1 271.3Q503.1 271.3 502.2 270.9Q501.2 270.5 500.6 269.6Q500.0 268.7 500.0 267.4L500.0 267.4ZM515.4 271.4L515.4 271.4Q513.2 271.4 511.6 270.5Q510.0 269.5 509.1 267.7Q508.3 266.0 508.3 263.6L508.3 263.6Q508.3 261.3 509.1 259.5Q510.0 257.7 511.5 256.7Q513.1 255.7 515.1 255.7L515.1 255.7Q516.3 255.7 517.5 256.1Q518.7 256.4 519.6 257.3Q520.6 258.2 521.1 259.7Q521.7 261.2 521.7 263.3L521.7 263.3L521.7 264.3L509.9 264.3L509.9 262.3L519.3 262.3Q519.3 261.0 518.8 259.9Q518.3 258.9 517.3 258.3Q516.4 257.8 515.1 257.8L515.1 257.8Q513.7 257.8 512.7 258.5Q511.7 259.1 511.1 260.2Q510.6 261.4 510.6 262.6L510.6 262.6L510.6 264.0Q510.6 265.7 511.2 266.9Q511.8 268.1 512.9 268.7Q513.9 269.3 515.4 269.3L515.4 269.3Q516.3 269.3 517.0 269.1Q517.8 268.8 518.3 268.3Q518.9 267.7 519.2 266.9L519.2 266.9L521.5 267.6Q521.1 268.7 520.3 269.6Q519.4 270.5 518.2 271.0Q516.9 271.4 515.4 271.4ZM527.6 271.1L525.3 271.1L525.3 255.9L527.5 255.9L527.5 258.2L527.7 258.2Q528.1 257.0 529.2 256.3Q530.3 255.6 531.7 255.6L531.7 255.6Q531.9 255.6 532.3 255.6Q532.7 255.6 532.9 255.7L532.9 255.7L532.9 258.0Q532.8 258.0 532.4 257.9Q531.9 257.9 531.5 257.9L531.5 257.9Q530.4 257.9 529.5 258.3Q528.6 258.8 528.1 259.6Q527.6 260.4 527.6 261.5L527.6 261.5L527.6 271.1ZM538.0 271.1L535.7 271.1L535.7 255.9L538.0 255.9L538.0 271.1ZM536.9 253.3L536.9 253.3Q536.2 253.3 535.7 252.8Q535.2 252.4 535.2 251.7L535.2 251.7Q535.2 251.1 535.7 250.6Q536.2 250.1 536.9 250.1L536.9 250.1Q537.6 250.1 538.1 250.6Q538.6 251.1 538.6 251.7L538.6 251.7Q538.6 252.4 538.1 252.8Q537.6 253.3 536.9 253.3ZM546.8 271.5L546.8 271.5Q545.4 271.5 544.2 270.9Q543.0 270.4 542.3 269.3Q541.6 268.3 541.6 266.8L541.6 266.8Q541.6 265.5 542.1 264.7Q542.7 263.8 543.5 263.4Q544.4 262.9 545.4 262.7Q546.5 262.4 547.5 262.3L547.5 262.3Q548.9 262.1 549.8 262.0Q550.7 261.9 551.1 261.7Q551.5 261.5 551.5 260.9L551.5 260.9L551.5 260.8Q551.5 259.4 550.7 258.5Q549.9 257.7 548.3 257.7L548.3 257.7Q546.6 257.7 545.6 258.5Q544.7 259.2 544.3 260.0L544.3 260.0L542.1 259.2Q542.7 257.8 543.7 257.1Q544.7 256.3 545.8 256.0Q547.0 255.7 548.2 255.7L548.2 255.7Q548.9 255.7 549.9 255.8Q550.8 256.0 551.7 256.5Q552.6 257.1 553.2 258.2Q553.8 259.2 553.8 261.1L553.8 261.1L553.8 271.1L551.5 271.1L551.5 269.1L551.4 269.1Q551.1 269.6 550.6 270.1Q550.0 270.7 549.1 271.1Q548.2 271.5 546.8 271.5ZM547.2 269.4L547.2 269.4Q548.6 269.4 549.5 268.8Q550.5 268.3 551.0 267.4Q551.5 266.6 551.5 265.6L551.5 265.6L551.5 263.4Q551.3 263.6 550.8 263.8Q550.3 263.9 549.7 264.0Q549.0 264.1 548.4 264.2Q547.8 264.3 547.4 264.3L547.4 264.3Q546.5 264.4 545.7 264.7Q544.9 265.0 544.4 265.5Q544.0 266.0 544.0 266.9L544.0 266.9Q544.0 268.1 544.9 268.8Q545.8 269.4 547.2 269.4ZM558.1 250.8L560.5 250.8L560.5 271.1L558.1 271.1L558.1 250.8ZM575.6 259.3L575.6 259.3L573.5 259.9Q573.3 259.3 572.9 258.8Q572.5 258.3 571.9 258.0Q571.2 257.7 570.2 257.7L570.2 257.7Q568.8 257.7 567.8 258.3Q566.9 259.0 566.9 259.9L566.9 259.9Q566.9 260.8 567.6 261.3Q568.2 261.8 569.5 262.2L569.5 262.2L571.8 262.7Q573.9 263.2 574.9 264.2Q575.9 265.3 575.9 266.9L575.9 266.9Q575.9 268.2 575.1 269.2Q574.4 270.3 573.0 270.8Q571.7 271.4 569.9 271.4L569.9 271.4Q567.6 271.4 566.0 270.4Q564.5 269.4 564.1 267.5L564.1 267.5L566.3 266.9Q566.6 268.1 567.5 268.8Q568.4 269.4 569.9 269.4L569.9 269.4Q571.5 269.4 572.5 268.7Q573.4 268.0 573.4 267.0L573.4 267.0Q573.4 266.2 572.9 265.7Q572.3 265.1 571.2 264.8L571.2 264.8L568.6 264.2Q566.5 263.7 565.5 262.7Q564.6 261.6 564.6 260.1L564.6 260.1Q564.6 258.8 565.3 257.8Q566.0 256.8 567.3 256.2Q568.6 255.7 570.2 255.7L570.2 255.7Q572.4 255.7 573.7 256.6Q575.0 257.6 575.6 259.3Z "/><mask id="satori_om-id-3"><rect x="300" y="298" width="200" height="4" fill="#fff"/></mask><rect x="300" y="298" width="200" height="4" fill="#0056b3"/></svg>